# xmcd
#
# Track frame offsets: 
#        150
#        15581
#        49025
#        81251
#
# Disc length: 1264 seconds
#
# Revision: 1
# Processed by: cddbd v1.5.2PL0 Copyright (c) Steve Scherf et al.
# Submitted via: ExactAudioCopy v0.99pb5
#
DISCID=2504ee04
DTITLE=Andre Visior - Don´t Go
DYEAR=2002
DGENRE=Eurodance
TTITLE0=Don´t Go (radio version)
TTITLE1=Don´t Go (grey and frost club mix)
TTITLE2=Don´t Go (voyal club mix)
TTITLE3=The Dawn
EXTD=
EXTT0=
EXTT1=
EXTT2=
EXTT3=
PLAYORDER=
